<svg aria-hidden="true" style="width:0;height:0;position:absolute;overflow:hidden" xmlns="http://www.w3.org/2000/svg"><defs><symbol id="icon-calendar" viewBox="0 0 32 32"><path fill="#4440f7" style="fill:var(--color1,#4440f7)" d="M22.667 4H28c.736 0 1.333.597 1.333 1.333v21.334c0 .736-.597 1.333-1.333 1.333H4a1.333 1.333 0 0 1-1.333-1.333V5.333C2.667 4.597 3.264 4 4 4h5.333V1.333H12V4h8V1.333h2.667V4zm4 10.667H5.333v10.666h21.334V14.667zm-6.667-8h-8v2.666H9.333V6.667h-4V12h21.334V6.667h-4v2.666H20V6.667zM8 17.333h2.667V20H8v-2.667zm6.667 0h2.666V20h-2.666v-2.667zm6.666 0H24V20h-2.667v-2.667z"/></symbol><symbol id="icon-circle_book" viewBox="0 0 32 32"><path fill="#4440f6" style="fill:var(--color2,#4440f6)" d="M32 16c0 8.837-7.163 16-16 16S0 24.837 0 16 7.163 0 16 0s16 7.163 16 16z"/><path fill="none" stroke="#f4f4f4" style="stroke:var(--color3,#f4f4f4)" stroke-linejoin="round" stroke-linecap="round" d="M8.5 9.25H13a3 3 0 0 1 3 3v10.5a2.25 2.25 0 0 0-2.25-2.25v0H8.5V9.25zm15 0H19a3 3 0 0 0-3 3v10.5a2.25 2.25 0 0 1 2.25-2.25v0h5.25V9.25z"/></symbol><symbol id="icon-circle_heart" viewBox="0 0 32 32"><path fill="#4440f6" style="fill:var(--color2,#4440f6)" d="M32 16c0 8.837-7.163 16-16 16S0 24.837 0 16 7.163 0 16 0s16 7.163 16 16z"/><path fill="none" stroke="#f4f4f4" style="stroke:var(--color3,#f4f4f4)" stroke-linejoin="round" stroke-linecap="round" d="M22.63 10.457c-.747-.747-1.778-1.208-2.918-1.208s-2.171.462-2.918 1.208l-.795.795-.795-.795a4.126 4.126 0 0 0-5.835 5.835l6.63 6.63 6.63-6.63c.747-.747 1.208-1.778 1.208-2.918s-.462-2.171-1.208-2.918v0z"/></symbol><symbol id="icon-circle_house" viewBox="0 0 32 32"><path fill="#4440f6" style="fill:var(--color2,#4440f6)" d="M32 16c0 8.837-7.163 16-16 16S0 24.837 0 16 7.163 0 16 0s16 7.163 16 16z"/><path fill="none" stroke="#f4f4f4" style="stroke:var(--color3,#f4f4f4)" stroke-linejoin="round" stroke-linecap="round" d="M9.25 13.75 16 8.5l6.75 5.25V22a1.5 1.5 0 0 1-1.5 1.5v0h-10.5a1.5 1.5 0 0 1-1.5-1.5v0-8.25z"/><path fill="none" stroke="#f4f4f4" style="stroke:var(--color3,#f4f4f4)" stroke-linejoin="round" stroke-linecap="round" d="M13.75 23.5V16h4.5v7.5"/></symbol><symbol id="icon-heart_empty" viewBox="0 0 32 32"><path fill="none" stroke="#4440f7" style="stroke:var(--color1,#4440f7)" stroke-linejoin="round" stroke-linecap="round" stroke-width="2" d="M9.334 4c-3.682 0-6.668 2.954-6.668 6.6 0 2.942 1.168 9.926 12.652 16.986a1.31 1.31 0 0 0 1.37-.003l-.006.003c11.484-7.06 12.652-14.044 12.652-16.986 0-3.646-2.986-6.6-6.668-6.6C18.986 4 16 8 16 8s-2.986-4-6.666-4z"/></symbol><symbol id="icon-heart_full" viewBox="0 0 32 32"><path fill="#4b48da" style="fill:var(--color4,#4b48da)" d="M8.382 2.286C4.174 2.286.761 5.662.761 9.829c0 3.362 1.335 11.344 14.459 19.413a1.494 1.494 0 0 0 1.565-.004l-.006.004c13.125-8.069 14.459-16.05 14.459-19.413 0-4.167-3.413-7.543-7.621-7.543-4.206 0-7.618 4.571-7.618 4.571s-3.413-4.571-7.618-4.571z"/></symbol><symbol id="icon-key_down" viewBox="0 0 32 32"><path fill="#4440f6" style="fill:var(--color2,#4440f6)" d="M3.76 9.143 0 12.622l16 14.807 16-14.807-3.76-3.479L16 20.446 3.76 9.143z"/></symbol><symbol id="icon-key_up" viewBox="0 0 32 32"><path fill="#4440f6" style="fill:var(--color2,#4440f6)" d="M3.76 25.143 0 21.664 16 6.857l16 14.807-3.76 3.479L16 13.84 3.76 25.143z"/></symbol><symbol id="icon-key_right" viewBox="0 0 32 32"><path d="M3.76 25.143 0 21.664 16 6.857l16 14.807-3.76 3.479L16 13.84 3.76 25.143z"/></symbol><symbol id="icon-search" viewBox="0 0 32 32"><path d="M13.333 23.6c2.368 0 4.666-.752 6.53-2.138l5.862 5.568 1.885-1.792-5.862-5.568a9.7 9.7 0 0 0 2.253-6.201v-.002c0-5.587-4.784-10.134-10.667-10.134-5.882 0-10.666 4.547-10.666 10.134S7.452 23.6 13.334 23.6zm0-17.733c4.413 0 8 3.408 8 7.6s-3.587 7.6-8 7.6c-4.411 0-8-3.408-8-7.6s3.589-7.6 8-7.6z"/></symbol><symbol id="icon-moon" viewBox="0 0 32 32"><path fill="none" stroke-linejoin="round" stroke-linecap="round" stroke-width="2.286" d="M28 17.053a11.994 11.994 0 0 1-7.873 10.182A12.003 12.003 0 0 1 4.338 18.56 12.002 12.002 0 0 1 14.946 3.999a9.335 9.335 0 0 0 6.812 14.856c2.23.166 4.444-.845 6.242-2.173v.371z"/></symbol><symbol id="icon-sun" viewBox="0 0 32 32"><path fill="none" stroke-linejoin="round" stroke-linecap="round" stroke-width="2.286" d="M16 1.778v2.586m0 23.272v2.586M5.941 5.941l1.836 1.836m16.447 16.446 1.836 1.836M1.778 16h2.586m23.273 0h2.586M5.941 26.059l1.836-1.836M24.224 7.777l1.836-1.836M22.465 16a6.465 6.465 0 1 1-12.93 0 6.465 6.465 0 0 1 12.93 0z"/></symbol><symbol id="icon-chevron-right" viewBox="0 0 32 32"><path fill="none" stroke-linejoin="round" stroke-linecap="round" stroke-width="2.667" d="m12 24 8-8-8-8"/></symbol><symbol id="icon-menu" viewBox="0 0 32 32"><path fill="none" stroke-linejoin="round" stroke-linecap="round" stroke-width="2.667" d="M4 16h24M4 8h24M4 24h24"/></symbol><symbol id="icon-menu-x" viewBox="0 0 32 32"><path fill="none" stroke-linejoin="round" stroke-linecap="round" stroke-width="2.667" d="M24 8 8 24M8 8l16 16"/></symbol></defs></svg>